<svg xmlns="http://www.w3.org/2000/svg" xmlns:xlink="http://www.w3.org/1999/xlink" viewBox="0 0 130.02 129.99"><defs><radialGradient id="a" cx="227.64" cy="-467.14" r="65" gradientTransform="matrix(0, -1.98, -1.84, 0, -825.82, 592.18)" gradientUnits="userSpaceOnUse"><stop offset="0" stop-color="#fd5"/><stop offset="0.1" stop-color="#fd5"/><stop offset="0.5" stop-color="#ff543e"/><stop offset="1" stop-color="#c837ab"/></radialGradient><radialGradient id="b" cx="132.59" cy="-397.33" r="65" gradientTransform="matrix(0.17, 0.87, 3.58, -0.72, 1379.32, -389.78)" gradientUnits="userSpaceOnUse"><stop offset="0" stop-color="#3771c8"/><stop offset="0.13" stop-color="#3771c8"/><stop offset="1" stop-color="#60f" stop-opacity="0"/></radialGradient></defs><title>Instagram_logo_2016</title><path d="M66,1C38.89,1,31,1,29.41,1.16c-5.57.46-9,1.34-12.81,3.22A25.91,25.91,0,0,0,9.13,9.84,27.86,27.86,0,0,0,1.6,25.66c-.44,3-.57,3.66-.6,19.18C1,50,1,56.83,1,66c0,27.12,0,35.05.16,36.59.46,5.42,1.3,8.83,3.1,12.56A27.41,27.41,0,0,0,22,129.62a46.13,46.13,0,0,0,9.45,1.25c1.61.07,18,.12,34.43.12s32.85,0,34.41-.1a44.55,44.55,0,0,0,9.78-1.28,27.22,27.22,0,0,0,17.75-14.53,32.12,32.12,0,0,0,3.07-12.32c.09-1.12.12-19,.12-36.81s0-35.66-.12-36.78a31.79,31.79,0,0,0-3.13-12.44,25.83,25.83,0,0,0-5.57-7.62A28,28,0,0,0,106.38,1.6c-3-.44-3.65-.57-19.19-.6Z" transform="translate(-1 -1)" style="fill:url(#a)"/><path d="M66,1C38.89,1,31,1,29.41,1.16c-5.57.46-9,1.34-12.81,3.22A25.91,25.91,0,0,0,9.13,9.84,27.86,27.86,0,0,0,1.6,25.66c-.44,3-.57,3.66-.6,19.18C1,50,1,56.83,1,66c0,27.12,0,35.05.16,36.59.46,5.42,1.3,8.83,3.1,12.56A27.41,27.41,0,0,0,22,129.62a46.13,46.13,0,0,0,9.45,1.25c1.61.07,18,.12,34.43.12s32.85,0,34.41-.1a44.55,44.55,0,0,0,9.78-1.28,27.22,27.22,0,0,0,17.75-14.53,32.12,32.12,0,0,0,3.07-12.32c.09-1.12.12-19,.12-36.81s0-35.66-.12-36.78a31.79,31.79,0,0,0-3.13-12.44,25.83,25.83,0,0,0-5.57-7.62A28,28,0,0,0,106.38,1.6c-3-.44-3.65-.57-19.19-.6Z" transform="translate(-1 -1)" style="fill:url(#b)"/><path d="M66,18c-13,0-14.67.06-19.79.29a35,35,0,0,0-11.65,2.23,24.59,24.59,0,0,0-14,14,35,35,0,0,0-2.23,11.65C18.06,51.33,18,53,18,66s.06,14.67.29,19.79a35.29,35.29,0,0,0,2.23,11.65,24.59,24.59,0,0,0,14,14,35,35,0,0,0,11.65,2.23c5.12.23,6.75.29,19.79.29s14.67-.06,19.79-.29a35,35,0,0,0,11.65-2.23,24.59,24.59,0,0,0,14-14,35.55,35.55,0,0,0,2.23-11.65c.23-5.12.29-6.75.29-19.79s-.06-14.67-.29-19.79a35.55,35.55,0,0,0-2.23-11.65,23.57,23.57,0,0,0-5.54-8.51,23.38,23.38,0,0,0-8.5-5.53,35.15,35.15,0,0,0-11.66-2.23C80.66,18.06,79,18,66,18Zm-4.3,8.65H66c12.82,0,14.34.05,19.4.28a26.39,26.39,0,0,1,8.91,1.65,15.89,15.89,0,0,1,9.11,9.11,26.39,26.39,0,0,1,1.65,8.91c.23,5.06.28,6.58.28,19.39s0,14.33-.28,19.39a26.39,26.39,0,0,1-1.65,8.91,15.91,15.91,0,0,1-9.11,9.1,26.58,26.58,0,0,1-8.91,1.66c-5.06.23-6.58.28-19.4.28s-14.33,0-19.39-.28a26.71,26.71,0,0,1-8.92-1.66,15.91,15.91,0,0,1-9.11-9.1,26.65,26.65,0,0,1-1.65-8.91c-.23-5.06-.28-6.59-.28-19.4s.05-14.33.28-19.39a26.78,26.78,0,0,1,1.65-8.92,15.89,15.89,0,0,1,9.11-9.11,26.52,26.52,0,0,1,8.92-1.65c4.43-.2,6.14-.26,15.09-.27Zm29.93,8a5.76,5.76,0,1,0,5.76,5.76,5.76,5.76,0,0,0-5.76-5.76ZM66,41.35A24.65,24.65,0,1,0,90.65,66,24.65,24.65,0,0,0,66,41.35ZM66,50A16,16,0,1,1,50,66,16,16,0,0,1,66,50Z" transform="translate(-1 -1)" style="fill:#fff"/></svg>